<svg height="980" width="920" xmlns="http://www.w3.org/2000/svg" xmlns:xlink="http://www.w3.org/1999/xlink"><defs><linearGradient id="a" gradientUnits="userSpaceOnUse" x1="820" x2="820" y1="500" y2="840"><stop offset="0" stop-color="#fff"/><stop offset=".5602" stop-color="#cfeee9"/><stop offset="1" stop-color="#9bdcd1"/></linearGradient><path id="b" d="m143 0-64-87-23 19v68h-32v-261h32v163l83-92h37l-77 82 82 108z"/><path id="c" d="m24 0v-261h32v261z"/><path id="d" d="m100-194c62-1 85 37 85 99 1 63-27 99-86 99s-83-39-84-99c0-66 28-99 85-99zm-1 174c44 1 53-31 53-75 0-43-8-75-51-75s-53 32-53 75 10 74 51 75"/><path id="e" d="m177-190c-10 125 41 293-110 261-23-6-38-20-44-43l32-5c15 47 100 32 89-28v-30c-11 21-29 36-61 36-54 0-68-41-68-96 0-56 16-97 71-98 29-1 48 16 59 35 1-10 0-23 2-32zm-83 168c36 0 50-32 50-73 0-42-14-75-50-75-39 0-46 34-46 75s6 73 46 73"/><path id="f" d="m100-194c63 0 86 42 84 106h-135c0 40 14 67 53 68 26 1 43-12 49-29l28 8c-11 28-37 45-77 45-58 0-88-37-87-100 1-61 26-98 85-98zm52 81c6-60-76-77-97-28-3 7-6 17-6 28z"/><path id="g" d="m114-163c-78-16-53 91-57 163h-32l-1-190h30c1 12-1 29 2 39 6-27 23-49 58-41z"/><path id="h" d="m85-194c31 0 48 13 60 33l-1-100h32l1 261h-30c-2-10 0-23-3-31-10 23-28 35-59 35-53 0-69-39-70-98 0-66 23-100 70-100zm9 24c-40 0-46 34-46 75 0 40 6 74 45 74 42 0 51-32 51-76 0-42-9-74-50-73"/><path id="i" d="m135-143c-3-34-86-38-87 0 15 53 115 12 119 90s-150 74-157 8l28-5c4 36 97 45 98 0-10-56-113-15-118-90-4-57 82-63 122-42 12 7 21 19 24 35"/><path id="j" d="m96-169c-40 0-48 33-48 73s9 75 48 75c24 0 41-14 43-38l32 2c-6 37-31 61-74 61-59 0-76-41-82-99-10-93 101-131 147-64 4 7 5 14 7 22l-32 3c-4-21-16-35-41-35"/><path id="k" d="m179-190-86 221c-14 28-37 51-81 42v-24c39 6 53-20 64-50l-75-189h34l57 156 54-156z"/><path id="l" d="m59-47c-2 24 18 29 38 22v24c-33 10-70 5-70-39v-127h-22v-23h24l9-43h21v43h35v23h-35z"/><path id="m" d="m117-194c89-4 53 116 60 194h-32v-121c0-31-8-49-39-48-72 2-44 102-49 169h-32l-1-190h30c1 10-1 24 2 32 11-22 29-35 61-36"/><path id="n" d="m141-36c-15 21-31 41-68 40-36-1-58-21-58-57-1-64 63-63 125-63 3-35-9-54-41-54-24 1-41 7-42 31l-33-3c5-37 33-52 76-52 45 0 72 20 72 64v82c-1 20 7 32 28 27v20c-31 9-61-2-59-35zm-93-17c0 20 12 33 32 33 41-3 63-29 60-74-43 2-92-5-92 41"/><path id="o" d="m210-169c-67 3-38 105-44 169h-31v-121c0-29-5-50-35-48-66 4-38 104-44 169h-31l-1-190h30c1 10-1 24 2 32 10-44 99-50 107 0 11-21 27-35 58-36 85-2 47 119 55 194h-31v-121c0-29-5-49-35-48"/><path id="p" d="m24-231v-30h32v30zm0 231v-190h32v190z"/><path id="q" d="m84 4c-89 4-54-116-61-194h32v120c0 31 7 50 39 49 72-2 45-101 50-169h31l1 190h-30c-1-10 1-25-2-33-11 22-28 36-60 37"/><path id="r" d="m141 0-51-78-52 78h-34l68-98-65-92h35l48 74 47-74h35l-64 92 68 98z"/><path id="s" d="m33 0v-38h34v38z"/></defs><g transform="translate(-120 -100)"><path d="m820 500h160v340h-160z" fill="url(#a)" stroke="#000" stroke-width="2"/><a target="_blank" xlink:href="https://github.com/korlibs/klogger"><path d="m280 300h120v60h-120z" fill="#c1e4f7" stroke="#000" stroke-width="2"/><g transform="translate(310.55 333.6)"><use transform="scale(.05)" xlink:href="#b"/><use transform="matrix(.05 0 0 .05 9 0)" xlink:href="#c"/><use transform="matrix(.05 0 0 .05 12.95 0)" xlink:href="#d"/><use transform="matrix(.05 0 0 .05 22.95 0)" xlink:href="#e"/><use transform="matrix(.05 0 0 .05 32.95 0)" xlink:href="#e"/><use transform="matrix(.05 0 0 .05 42.95 0)" xlink:href="#f"/><use transform="matrix(.05 0 0 .05 52.95 0)" xlink:href="#g"/></g><path d="m280 300h120v60h-120z" fill="none"/></a><a target="_blank" xlink:href="https://github.com/korlibs/kds"><path d="m140 300h120v60h-120z" fill="#c1e4f7" stroke="#000" stroke-width="2"/><g transform="translate(186 334.1)"><use transform="scale(.05)" xlink:href="#b"/><use transform="matrix(.05 0 0 .05 9 0)" xlink:href="#h"/><use transform="matrix(.05 0 0 .05 19 0)" xlink:href="#i"/></g><path d="m140 300h120v60h-120z" fill="none"/></a><a target="_blank" xlink:href="https://github.com/korlibs/klock"><path d="m420 300h120v60h-120z" fill="#c1e4f7" stroke="#000" stroke-width="2"/><g transform="translate(459.525 334.1)"><use transform="scale(.05)" xlink:href="#b"/><use transform="matrix(.05 0 0 .05 9 0)" xlink:href="#c"/><use transform="matrix(.05 0 0 .05 12.95 0)" xlink:href="#d"/><use transform="matrix(.05 0 0 .05 22.95 0)" xlink:href="#j"/><use transform="matrix(.05 0 0 .05 31.95 0)" xlink:href="#b"/></g><path d="m420 300h120v60h-120z" fill="none"/></a><a target="_blank" xlink:href="https://github.com/korlibs/krypto"><path d="m840 600h120v60h-120z" fill="#c1e4f7" stroke="#000" stroke-width="2"/><g transform="translate(875.525 634.1)"><use transform="scale(.05)" xlink:href="#b"/><use transform="matrix(.05 0 0 .05 9 0)" xlink:href="#g"/><use transform="matrix(.05 0 0 .05 14.95 0)" xlink:href="#k"/><path d="m115-194c55 1 70 41 70 98s-16 98-70 100c-31 0-49-13-60-34l1 105h-32l-1-265h31l2 30c10-21 28-34 59-34zm-8 174c40 0 45-34 45-75s-6-73-45-74c-42 0-51 32-51 76 0 43 10 73 51 73" transform="matrix(.05 0 0 .05 23.95 0)"/><use transform="matrix(.05 0 0 .05 33.95 0)" xlink:href="#l"/><use transform="matrix(.05 0 0 .05 38.95 0)" xlink:href="#d"/></g><path d="m840 600h120v60h-120z" fill="none"/></a><a target="_blank" xlink:href="https://github.com/korlibs/dynarek"><path d="m840 760h120v60h-120z" fill="#c1e4f7" stroke="#000" stroke-width="2"/><g transform="translate(868.025 794.1)"><use transform="scale(.05)" xlink:href="#h"/><use transform="matrix(.05 0 0 .05 10 0)" xlink:href="#k"/><use transform="matrix(.05 0 0 .05 19 0)" xlink:href="#m"/><use transform="matrix(.05 0 0 .05 29 0)" xlink:href="#n"/><use transform="matrix(.05 0 0 .05 39 0)" xlink:href="#g"/><use transform="matrix(.05 0 0 .05 44.95 0)" xlink:href="#f"/><use transform="matrix(.05 0 0 .05 54.95 0)" xlink:href="#b"/></g><path d="m840 760h120v60h-120z" fill="none"/></a><a target="_blank" xlink:href="https://github.com/korlibs/kmem"><path d="m560 300h120v60h-120z" fill="#c1e4f7" stroke="#000" stroke-width="2"/><g transform="translate(595.55 334.1)"><use transform="scale(.05)" xlink:href="#b"/><use transform="matrix(.05 0 0 .05 9 0)" xlink:href="#o"/><use transform="matrix(.05 0 0 .05 23.95 0)" xlink:href="#f"/><use transform="matrix(.05 0 0 .05 33.95 0)" xlink:href="#o"/></g><path d="m560 300h120v60h-120z" fill="none"/></a><a target="_blank" xlink:href="https://github.com/korlibs/kbignum"><path d="m840 680h120v60h-120z" fill="#c1e4f7" stroke="#000" stroke-width="2"/><g transform="translate(866.05 714.1)"><use transform="scale(.05)" xlink:href="#b"/><path d="m115-194c53 0 69 39 70 98 0 66-23 100-70 100-31-1-49-11-59-34l-2 30h-31l1-261h32v101c10-23 28-34 59-34zm-8 174c40 0 45-34 45-75 0-40-5-75-45-74-42 0-51 32-51 76 0 43 10 73 51 73" transform="matrix(.05 0 0 .05 9 0)"/><use transform="matrix(.05 0 0 .05 19 0)" xlink:href="#p"/><use transform="matrix(.05 0 0 .05 22.95 0)" xlink:href="#e"/><use transform="matrix(.05 0 0 .05 32.95 0)" xlink:href="#m"/><use transform="matrix(.05 0 0 .05 42.95 0)" xlink:href="#q"/><use transform="matrix(.05 0 0 .05 52.95 0)" xlink:href="#o"/></g><path d="m840 680h120v60h-120z" fill="none"/></a><a target="_blank" xlink:href="https://github.com/Kotlin/kotlinx.coroutines"><path d="m740 220h280v60h-280z" fill="#e5e5e5" stroke="#000" stroke-width="2"/><g transform="translate(810.6 254.1)"><use transform="scale(.05)" xlink:href="#b"/><use transform="matrix(.05 0 0 .05 9 0)" xlink:href="#d"/><use transform="matrix(.05 0 0 .05 19 0)" xlink:href="#l"/><use transform="matrix(.05 0 0 .05 24 0)" xlink:href="#c"/><use transform="matrix(.05 0 0 .05 27.95 0)" xlink:href="#p"/><use transform="matrix(.05 0 0 .05 31.9 0)" xlink:href="#m"/><use transform="matrix(.05 0 0 .05 41.9 0)" xlink:href="#r"/><use transform="matrix(.05 0 0 .05 50.9 0)" xlink:href="#s"/><use transform="matrix(.05 0 0 .05 55.9 0)" xlink:href="#j"/><use transform="matrix(.05 0 0 .05 64.9 0)" xlink:href="#d"/><use transform="matrix(.05 0 0 .05 74.9 0)" xlink:href="#g"/><use transform="matrix(.05 0 0 .05 80.85 0)" xlink:href="#d"/><use transform="matrix(.05 0 0 .05 90.85 0)" xlink:href="#q"/><use transform="matrix(.05 0 0 .05 100.85 0)" xlink:href="#l"/><use transform="matrix(.05 0 0 .05 105.85 0)" xlink:href="#p"/><use transform="matrix(.05 0 0 .05 109.8 0)" xlink:href="#m"/><use transform="matrix(.05 0 0 .05 119.8 0)" xlink:href="#f"/><use transform="matrix(.05 0 0 .05 129.8 0)" xlink:href="#i"/></g><path d="m740 220h280v60h-280z" fill="none"/></a><a target="_blank" xlink:href="https://github.com/Kotlin/kotlinx.atomicfu"><path d="m740 120h280v60h-280z" fill="#e5e5e5" stroke="#000" stroke-width="2"/><g transform="translate(818.1 154.1)"><use transform="scale(.05)" xlink:href="#b"/><use transform="matrix(.05 0 0 .05 9 0)" xlink:href="#d"/><use transform="matrix(.05 0 0 .05 19 0)" xlink:href="#l"/><use transform="matrix(.05 0 0 .05 24 0)" xlink:href="#c"/><use transform="matrix(.05 0 0 .05 27.95 0)" xlink:href="#p"/><use transform="matrix(.05 0 0 .05 31.9 0)" xlink:href="#m"/><use transform="matrix(.05 0 0 .05 41.9 0)" xlink:href="#r"/><use transform="matrix(.05 0 0 .05 50.9 0)" xlink:href="#s"/><use transform="matrix(.05 0 0 .05 55.9 0)" xlink:href="#n"/><use transform="matrix(.05 0 0 .05 65.9 0)" xlink:href="#l"/><use transform="matrix(.05 0 0 .05 70.9 0)" xlink:href="#d"/><use transform="matrix(.05 0 0 .05 80.9 0)" xlink:href="#o"/><use transform="matrix(.05 0 0 .05 95.85 0)" xlink:href="#p"/><use transform="matrix(.05 0 0 .05 99.8 0)" xlink:href="#j"/><path d="m101-234c-31-9-42 10-38 44h38v23h-38v167h-31v-167h-27v-23h27c-7-52 17-82 69-68z" transform="matrix(.05 0 0 .05 108.8 0)"/><use transform="matrix(.05 0 0 .05 113.8 0)" xlink:href="#q"/></g><path d="m740 120h280v60h-280z" fill="none"/></a><a target="_blank" xlink:href="https://github.com/korlibs/korio"><path d="m360 540h120v60h-120z" fill="#a3d977" stroke="#000" stroke-width="2"/><g transform="translate(400.55 574.1)"><use transform="scale(.05)" xlink:href="#b"/><use transform="matrix(.05 0 0 .05 9 0)" xlink:href="#d"/><use transform="matrix(.05 0 0 .05 19 0)" xlink:href="#g"/><use transform="matrix(.05 0 0 .05 24.95 0)" xlink:href="#p"/><use transform="matrix(.05 0 0 .05 28.9 0)" xlink:href="#d"/></g><path d="m360 540h120v60h-120z" fill="none"/></a><a target="_blank" xlink:href="https://github.com/korlibs/korma"><path d="m220 540h120v60h-120z" fill="#a3d977" stroke="#000" stroke-width="2"/><g transform="translate(255.05 574.1)"><use transform="scale(.05)" xlink:href="#b"/><use transform="matrix(.05 0 0 .05 9 0)" xlink:href="#d"/><use transform="matrix(.05 0 0 .05 19 0)" xlink:href="#g"/><use transform="matrix(.05 0 0 .05 24.95 0)" xlink:href="#o"/><use transform="matrix(.05 0 0 .05 39.9 0)" xlink:href="#n"/></g><path d="m220 540h120v60h-120z" fill="none"/></a><path d="m200 361 .12 5.95.35 5.47.53 5.08.7 4.76.86 4.5 1 4.27 1.15 4.1 1.3 4 1.45 3.88 1.6 3.86 1.82 3.84 2.04 3.9 2.33 4.02 2.7 4.24 3.23 4.64 4.12 5.42 6.24 7.52 23.2 26.64 4.12 5.42 3.23 4.64 2.7 4.24 2.32 4.02 2.03 3.9 1.8 3.84 1.62 3.85 1.45 3.88 1.3 3.98 1.14 4.1 1 4.3.86 4.48.45 3.08" fill="none" stroke="#0c7cba" stroke-width="2"/><path d="m201 360.95-2 .1-.06-1.05h2zm78.78 174.82-5.6-13.9 9.25-.65z" fill="#0c7cba"/><path d="m280 539-7.26-18.05 12-.82zm-4.38-16.24 3.94 9.78 2.56-10.23z" fill="#0c7cba"/><path d="m480 361-.16 7.82-.44 7-.67 6.37-.86 5.83-1.04 5.45-1.2 5.14-1.37 4.92-1.55 4.77-1.74 4.72-2 4.74-2.3 4.9-2.8 5.34-3.63 6.28-6.4 10-14.06 21.44-3.63 6.28-2.8 5.33-2.3 4.9-2 4.75-1.75 4.7-1.56 4.78-1.37 4.92-1.2 5.14-1.04 5.45-.86 5.84-.32 3" fill="none" stroke="#0c7cba" stroke-width="2"/><path d="m481 361.04-2-.08.04-.96h2zm-55.46 160.72-5.37 14-3.88-14.48z" fill="#0c7cba"/><path d="m426.97 520.84-6.97 18.16-5.04-18.8zm-6.63 11.7 3.78-9.85-6.5-.35z" fill="#0c7cba"/><path d="m340 361 .12 5.95.35 5.47.53 5.08.7 4.76.86 4.5 1 4.27 1.15 4.1 1.3 4 1.45 3.88 1.6 3.86 1.82 3.84 2.04 3.9 2.33 4.02 2.7 4.24 3.23 4.64 4.12 5.42 6.24 7.52 23.2 26.64 4.12 5.42 3.23 4.64 2.7 4.24 2.32 4.02 2.03 3.9 1.8 3.84 1.62 3.85 1.45 3.88 1.3 3.98 1.14 4.1 1 4.3.86 4.48.45 3.08" fill="none" stroke="#0c7cba" stroke-width="2"/><path d="m341 360.95-2 .1-.06-1.05h2zm78.78 174.82-5.6-13.9 9.25-.65z" fill="#0c7cba"/><path d="m420 539-7.26-18.05 12-.82zm-4.38-16.24 3.94 9.78 2.56-10.23z" fill="#0c7cba"/><path d="m620 361-.05 2.45-.15 2.36-.24 2.3-.33 2.26-.42 2.2-.5 2.16-.6 2.14-.7 2.12-.77 2.12-.9 2.1-1 2.14-1.12 2.14-1.24 2.18-1.4 2.2-1.58 2.27-1.77 2.33-1.98 2.4-2.26 2.52-2.58 2.63-2.96 2.8-3.44 2.95-4.04 3.2-4.84 3.5-5.92 3.94-7.55 4.55-10.26 5.63-16.56 8.17-66.17 30.67-10.26 5.63-7.55 4.56-5.92 3.94-4.84 3.5-4.04 3.2-3.44 2.97-2.96 2.8-2.58 2.62-2.26 2.5-2 2.42-1.76 2.33-1.57 2.26-1.4 2.2-1.26 2.2-1.14 2.13-1 2.13-.9 2.1-.77 2.12-.04.07" fill="none" stroke="#0c7cba" stroke-width="2"/><path d="m621 361.14-2-.27.13-.87h2zm-193.57 161.36-6.9 13.3-2.25-14.82z" fill="#0c7cba"/><path d="m428.95 521.73-8.95 17.27-2.9-19.24zm-7.9 10.88 4.86-9.35-6.42-1.06z" fill="#0c7cba"/><a target="_blank" xlink:href="https://github.com/korlibs/korim"><path d="m360 700h120v60h-120z" fill="#ffbbb1" stroke="#000" stroke-width="2"/><g transform="translate(398.075 734.1)"><use transform="scale(.05)" xlink:href="#b"/><use transform="matrix(.05 0 0 .05 9 0)" xlink:href="#d"/><use transform="matrix(.05 0 0 .05 19 0)" xlink:href="#g"/><use transform="matrix(.05 0 0 .05 24.95 0)" xlink:href="#p"/><use transform="matrix(.05 0 0 .05 28.9 0)" xlink:href="#o"/></g><path d="m360 700h120v60h-120z" fill="none"/></a><path d="m420 601v79.76" fill="none" stroke="#7ab648" stroke-width="2"/><path d="m421 601h-2v-1h2zm-1 94.76-4.64-14.26h9.28z" fill="#7ab648"/><path d="m420 699-6-18.5h12zm-3.26-16.5 3.26 10.03 3.26-10.03z" fill="#7ab648"/><path d="m280 601 .02 1.06.07 1.04.1 1 .14 1 .2 1 .22.97.27.97.3.97.37.97.4.98.48.98.52 1 .58 1.02.66 1.03.74 1.07.84 1.1.94 1.14 1.08 1.18 1.22 1.25 1.4 1.3 1.62 1.4 1.9 1.5 2.23 1.63 2.7 1.78 3.26 1.98 4.1 2.25 5.37 2.66 7.52 3.33 12.67 4.98 48.83 17.9 7.52 3.33 5.36 2.66 4.1 2.25 3.28 1.98 2.7 1.78 2.22 1.62 1.9 1.5 1.62 1.4 1.4 1.3 1.22 1.26 1.08 1.2.5.6" fill="none" stroke="#000" stroke-width="2"/><path d="m280.95 600.7-1.9.6-.4-1.3h2.08zm137.9 95.28-9.42-11.68 8.66-3.3z"/><path d="m420 699-12.2-15.15 11.22-4.28zm-8.93-14.26 6.62 8.2-.54-10.52z"/><a target="_blank" xlink:href="https://github.com/korlibs/korau"><path d="m220 700h120v60h-120z" fill="#ffbbb1" stroke="#000" stroke-width="2"/><g transform="translate(257.525 734.1)"><use transform="scale(.05)" xlink:href="#b"/><use transform="matrix(.05 0 0 .05 9 0)" xlink:href="#d"/><use transform="matrix(.05 0 0 .05 19 0)" xlink:href="#g"/><use transform="matrix(.05 0 0 .05 24.95 0)" xlink:href="#n"/><use transform="matrix(.05 0 0 .05 34.95 0)" xlink:href="#q"/></g><path d="m220 700h120v60h-120z" fill="none"/></a><path d="m280 601v79.76" fill="none" stroke="#000" stroke-width="2"/><path d="m281 601h-2v-1h2zm-1 94.76-4.64-14.26h9.28z"/><path d="m280 699-6-18.5h12zm-3.26-16.5 3.26 10.03 3.26-10.03z"/><path d="m420 601-.02 1.06-.07 1.04-.1 1-.14 1-.2 1-.22.97-.27.97-.3.97-.37.97-.4.98-.48.98-.52 1-.58 1.02-.66 1.03-.74 1.07-.84 1.1-.94 1.14-1.08 1.18-1.22 1.25-1.4 1.3-1.62 1.4-1.9 1.5-2.23 1.63-2.7 1.78-3.26 1.98-4.1 2.25-5.37 2.66-7.52 3.33-12.67 4.98-48.83 17.9-7.52 3.33-5.36 2.66-4.1 2.25-3.28 1.98-2.7 1.78-2.22 1.62-1.9 1.5-1.62 1.4-1.4 1.3-1.22 1.26-1.08 1.2-.5.6" fill="none" stroke="#7ab648" stroke-width="2"/><path d="m420.95 601.3-1.9-.6.22-.7h2.1zm-130.38 83-9.42 11.68.76-14.98z" fill="#7ab648"/><path d="m292.2 683.85-12.2 15.15.98-19.43zm-9.9 9.1 6.63-8.2-6.1-2.33z" fill="#7ab648"/><a target="_blank" xlink:href="https://github.com/korlibs/korte"><path d="m520 540h120v60h-120z" fill="#ffbbb1" stroke="#000" stroke-width="2"/><g transform="translate(560.025 574.1)"><use transform="scale(.05)" xlink:href="#b"/><use transform="matrix(.05 0 0 .05 9 0)" xlink:href="#d"/><use transform="matrix(.05 0 0 .05 19 0)" xlink:href="#g"/><use transform="matrix(.05 0 0 .05 24.95 0)" xlink:href="#l"/><use transform="matrix(.05 0 0 .05 29.95 0)" xlink:href="#f"/></g><path d="m520 540h120v60h-120z" fill="none"/></a><path d="m481 570h19.76" fill="none" stroke="#7ab648" stroke-width="2"/><path d="m481 571h-1v-2h1zm34.76-1-14.26 4.64v-9.28z" fill="#7ab648"/><path d="m519 570-18.5 6v-12zm-16.5 3.26 10.03-3.26-10.03-3.26z" fill="#7ab648"/><a target="_blank" xlink:href="https://github.com/korlibs/korinject"><path d="m520 900h120v60h-120z" fill="#c1e4f7" stroke="#000" stroke-width="2"/><g transform="translate(546.575 934.1)"><use transform="scale(.05)" xlink:href="#b"/><use transform="matrix(.05 0 0 .05 9 0)" xlink:href="#d"/><use transform="matrix(.05 0 0 .05 19 0)" xlink:href="#g"/><use transform="matrix(.05 0 0 .05 24.95 0)" xlink:href="#p"/><use transform="matrix(.05 0 0 .05 28.9 0)" xlink:href="#m"/><path d="m24-231v-30h32v30zm-33 280c24 4 33-6 33-30v-209h32v214c2 40-23 58-65 49z" transform="matrix(.05 0 0 .05 38.9 0)"/><use transform="matrix(.05 0 0 .05 42.85 0)" xlink:href="#f"/><use transform="matrix(.05 0 0 .05 52.85 0)" xlink:href="#j"/><use transform="matrix(.05 0 0 .05 61.85 0)" xlink:href="#l"/></g><path d="m520 900h120v60h-120z" fill="none"/></a><a target="_blank" xlink:href="https://github.com/korlibs/korag"><path d="m360 800h120v60h-120z" fill="#d1bcd2" stroke="#000" stroke-width="2"/><g transform="translate(397.525 834.1)"><use transform="scale(.05)" xlink:href="#b"/><use transform="matrix(.05 0 0 .05 9 0)" xlink:href="#d"/><use transform="matrix(.05 0 0 .05 19 0)" xlink:href="#g"/><use transform="matrix(.05 0 0 .05 24.95 0)" xlink:href="#n"/><use transform="matrix(.05 0 0 .05 34.95 0)" xlink:href="#e"/></g><path d="m360 800h120v60h-120z" fill="none"/></a><a target="_blank" xlink:href="https://github.com/korlibs/korui"><path d="m360 900h120v60h-120z" fill="#d1bcd2" stroke="#000" stroke-width="2"/><g transform="translate(400.55 934.1)"><use transform="scale(.05)" xlink:href="#b"/><use transform="matrix(.05 0 0 .05 9 0)" xlink:href="#d"/><use transform="matrix(.05 0 0 .05 19 0)" xlink:href="#g"/><use transform="matrix(.05 0 0 .05 24.95 0)" xlink:href="#q"/><use transform="matrix(.05 0 0 .05 34.95 0)" xlink:href="#p"/></g><path d="m360 900h120v60h-120z" fill="none"/></a><path d="m420 861v19.76" fill="none" stroke="#000" stroke-width="2"/><path d="m421 861h-2v-1h2zm-1 34.76-4.64-14.26h9.28z"/><path d="m420 899-6-18.5h12zm-3.26-16.5 3.26 10.03 3.26-10.03z"/><a target="_blank" xlink:href="https://github.com/korlibs/korge"><path d="m360 1000h120v60h-120z" fill="#ffc374" stroke="#000" stroke-width="2"/><g transform="translate(397.525 1034.1)"><use transform="scale(.05)" xlink:href="#b"/><use transform="matrix(.05 0 0 .05 9 0)" xlink:href="#d"/><use transform="matrix(.05 0 0 .05 19 0)" xlink:href="#g"/><use transform="matrix(.05 0 0 .05 24.95 0)" xlink:href="#e"/><use transform="matrix(.05 0 0 .05 34.95 0)" xlink:href="#f"/></g><path d="m360 1000h120v60h-120z" fill="none"/></a><path d="m420 761v19.76" fill="none" stroke="#000" stroke-width="2"/><path d="m421 761h-2v-1h2zm-1 34.76-4.64-14.26h9.28z"/><path d="m420 799-6-18.5h12zm-3.26-16.5 3.26 10.03 3.26-10.03z"/><path d="m420 961v19.76" fill="none" stroke="#000" stroke-width="2"/><path d="m421 961h-2v-1h2zm-1 34.76-4.64-14.26h9.28z"/><path d="m420 999-6-18.5h12zm-3.26-16.5 3.26 10.03 3.26-10.03z"/><path d="m280 761-.8 33.7-4.46 107.05.4 20.66.93 14.95 1.23 11.64 1.4 9.5 1.5 7.96 1.6 6.8 1.63 5.88 1.68 5.17 1.7 4.6 1.73 4.1 1.75 3.7 1.75 3.37 1.78 3.07 1.8 2.82 1.8 2.6 1.83 2.42 1.86 2.24 1.88 2.1 1.92 1.96 1.96 1.84 2 1.73 2.06 1.63 2.1 1.54 2.2 1.45 2.26 1.37 2.35 1.3 2.44 1.2 2.56 1.14 2.7 1.06 2.82 1 3 .9 3.2.8 3.4.73.9.16" fill="none" stroke="#000" stroke-width="2"/><path d="m281 761.03-2-.05.02-.98h2zm74.78 275.37-14.6 3.4.77-9.23z"/><path d="m359 1036.67-18.94 4.42 1-12zm-16.72 1.85 10.27-2.4-9.72-4.1z"/><a target="_blank" xlink:href="https://github.com/korlibs/metrik"><path d="m840 520h120v60h-120z" fill="#c1e4f7" stroke="#000" stroke-width="2"/><g transform="translate(875.575 554.1)"><use transform="scale(.05)" xlink:href="#o"/><use transform="matrix(.05 0 0 .05 14.95 0)" xlink:href="#f"/><use transform="matrix(.05 0 0 .05 24.95 0)" xlink:href="#l"/><use transform="matrix(.05 0 0 .05 29.95 0)" xlink:href="#g"/><use transform="matrix(.05 0 0 .05 35.9 0)" xlink:href="#p"/><use transform="matrix(.05 0 0 .05 39.85 0)" xlink:href="#b"/></g><path d="m840 520h120v60h-120z" fill="none"/></a><path d="m200 361 .05 2.23.13 2.16.22 2.1.3 2.06.4 2.03.46 2 .56 1.97.64 1.97.73 1.97.82 1.98.94 2 1.05 2 1.18 2.03 1.32 2.1 1.5 2.12 1.65 2.2 1.88 2.27 2.13 2.35 2.43 2.48 2.78 2.6 3.22 2.8 3.78 3 4.5 3.25 5.42 3.6 6.75 4.08 8.75 4.8 12.24 6.05 21.5 9.52 66.82 28.07 12.24 6.04 8.75 4.8 6.75 4.08 5.43 3.6 4.5 3.26 3.77 3 3.22 2.78 2.8 2.6 2.42 2.5 2.13 2.35 1.88 2.28 1.66 2.2 1.5 2.13 1.32 2.1 1.17 2.02 1.04 2 .94 2 .83 1.97.26.66" fill="none" stroke="#0c7cba" stroke-width="2"/><path d="m201 360.86-2 .3-.16-1.16h2.02zm218.42 174.96-7.1-13.2 9.1-1.67z" fill="#0c7cba"/><path d="m420 539-9.22-17.13 11.83-2.15zm-6.16-15.65 5 9.28 1.42-10.45z" fill="#0c7cba"/><path d="m880 181v19.76" fill="none" stroke="#000" stroke-width="2"/><path d="m881 181h-2v-1h2zm-1 34.76-4.64-14.26h9.28z"/><path d="m880 219-6-18.5h12zm-3.26-16.5 3.26 10.03 3.26-10.03z"/><path d="m880 281-.06 2.65-.16 2.6-.27 2.58-.37 2.55-.48 2.54-.6 2.53-.7 2.54-.83 2.54-.96 2.57-1.1 2.62-1.25 2.66-1.4 2.7-1.6 2.8-1.83 2.86-2.07 2.96-2.34 3.1-2.67 3.22-3.06 3.38-3.52 3.6-4.06 3.8-4.73 4.08-5.58 4.4-6.63 4.83-8 5.32-9.84 5.95-12.37 6.78-16.08 7.97-22.05 9.8-33.7 13.25-216.79 75.62-20.82 9.25-15.04 7.45-11.48 6.3-9.07 5.48-7.36 4.88-6.06 4.4-5.07 4-4.28 3.7-3.67 3.46-.34.34" fill="none" stroke="#000" stroke-width="2"/><path d="m881 281.12-2-.24.1-.88h2.03zm-446.2 247.46-12.72 7.94 5.63-13.9z"/><path d="m436.5 528.7-16.5 10.3 7.3-18.03zm-12.34 5.34 8.95-5.58-4.98-4.2z"/><path d="m580 961-.08 3.4-.25 3.2-.4 3.06-.5 2.94-.66 2.82-.77 2.73-.9 2.65-1.03 2.58-1.15 2.52-1.3 2.47-1.4 2.42-1.58 2.4-1.73 2.35-1.9 2.35-2.1 2.33-2.3 2.3-2.54 2.3-2.8 2.3-3.08 2.28-3.4 2.28-3.8 2.23-4.16 2.2-4.63 2.16-5.12 2.07-5.65 1.95-6.2 1.8-6.8 1.6-7.35 1.36-7.2.95" fill="none" stroke="#000" stroke-width="2"/><path d="m581 961.12-2-.24.1-.88h2.03zm-82.27 72.54-14.5-3.84 14-5.42z"/><path d="m499.8 1034.98-18.8-4.98 18.14-7.03zm-12.34-5.34 10.2 2.7-.36-6.5z"/></g></svg>
