<?xml version="1.0" encoding="UTF-8"?>
<!DOCTYPE svg PUBLIC "-//W3C//DTD SVG 1.1//EN" "http://www.w3.org/Graphics/SVG/1.1/DTD/svg11.dtd">
<svg version="1.1" xmlns="http://www.w3.org/2000/svg" xmlns:xlink="http://www.w3.org/1999/xlink" x="0" y="0" width="256" height="256" viewBox="0, 0, 256, 256">
  <g id="Layer_2">
    <g>
      <path d="M8.022,8 C8.022,8 10.763,248 8.022,248 C5.282,248 248.001,248 248.001,248 C248.001,248 88.004,128 88.004,128 C88.004,128 248.001,8 248.001,8 C248.001,8 8.022,9.644 8.022,8 z" fill="#363878"/>
      <path d="M248.001,8 C248.001,8 88.004,128 88.004,128 C88.004,128 248.001,248 248.001,248 L8.022,248 C10.763,248 8.022,8 8.022,8 C8.022,9.644 248.001,8 248.001,8 z M235.896,12.079 C232.618,12.1 234.5,12.088 230.249,12.114 C216.36,12.2 201.36,12.285 185.804,12.365 C165.804,12.468 146.359,12.554 128.025,12.616 C94.27,12.732 66.14,12.764 45.505,12.694 C33.771,12.653 24.615,12.58 18.265,12.472 C14.613,12.402 16.678,12.447 12.071,12.325 L12.075,12.679 C12.116,16.499 12.163,20.875 12.212,25.736 C12.355,39.628 12.498,54.63 12.631,70.188 C12.803,90.191 12.945,109.64 13.05,127.977 C13.243,161.741 13.296,189.879 13.178,210.523 C13.111,222.269 12.989,231.437 12.807,237.802 C12.691,241.467 12.767,239.4 12.564,244 L236.001,244 C230.867,240.15 225.734,236.3 220.601,232.45 C195.602,213.7 195.602,213.7 165.602,191.2 C135.603,168.7 135.603,168.7 110.603,149.95 C99.978,141.981 99.978,141.981 92.478,136.356 C86.854,132.137 86.854,132.137 85.604,131.2 L81.337,128 L85.604,124.8 C87.565,123.329 89.526,121.858 91.488,120.386 C97.86,115.608 104.231,110.829 110.603,106.05 C135.603,87.3 135.603,87.3 165.602,64.8 C195.602,42.3 195.602,42.3 220.601,23.55 C225.699,19.726 230.797,15.902 235.896,12.079 z" fill="#C5C5C5"/>
    </g>
  </g>
  <g id="Layer_5">
    <g>
      <path d="M104.6,152.5 L152.6,152.5 L152.6,168.5 L104.6,168.5 L104.6,152.5 z" fill="#9193D0"/>
      <path d="M104.6,152.5 L152.6,152.5 L152.6,168.5 L104.6,168.5 L104.6,152.5 z" fill-opacity="0" stroke="#26263B" stroke-width="2"/>
    </g>
    <g>
      <path d="M104.6,184.5 L152.6,184.5 L152.6,200.5 L104.6,200.5 L104.6,184.5 z" fill="#9193D0"/>
      <path d="M104.6,184.5 L152.6,184.5 L152.6,200.5 L104.6,200.5 L104.6,184.5 z" fill-opacity="0" stroke="#26263B" stroke-width="2"/>
    </g>
    <g>
      <path d="M104.6,216.5 L152.6,216.5 L152.4,232.5 L104.4,232.5 L104.6,216.5 z" fill="#9193D0"/>
      <path d="M104.6,216.5 L152.6,216.5 L152.4,232.5 L104.4,232.5 L104.6,216.5 z" fill-opacity="0" stroke="#26263B" stroke-width="2"/>
    </g>
    <g>
      <path d="M72.4,232.5 L88.4,232.5 L88.6,152.5 L72.6,152.5 L56.6,168.5 L40.6,152.5 L24.4,152.5 L24.4,232.5 L40.4,232.5 L40.599,176.5 L56.599,192.5 L72.599,176.5 z" fill="#9193D0"/>
      <path d="M72.4,232.5 L88.4,232.5 L88.6,152.5 L72.6,152.5 L56.6,168.5 L40.6,152.5 L24.4,152.5 L24.4,232.5 L40.4,232.5 L40.599,176.5 L56.599,192.5 L72.599,176.5 z" fill-opacity="0" stroke="#26263B" stroke-width="2"/>
    </g>
    <g>
      <path d="M216.4,232.5 L232.4,232.5 L232.6,152.5 L216.6,152.5 L200.6,168.5 L184.6,152.5 L168.4,152.5 L168.4,232.5 L184.4,232.5 L184.599,176.5 L200.599,192.5 L216.599,176.5 z" fill="#9193D0"/>
      <path d="M216.4,232.5 L232.4,232.5 L232.6,152.5 L216.6,152.5 L200.6,168.5 L184.6,152.5 L168.4,152.5 L168.4,232.5 L184.4,232.5 L184.599,176.5 L200.599,192.5 L216.599,176.5 z" fill-opacity="0" stroke="#26263B" stroke-width="2"/>
    </g>
  </g>
</svg>
