<svg
    width="512" height="512"
    viewBox="0 0 512 512"
    xmlns="http://www.w3.org/2000/svg"
    style="stroke-linecap:round; stroke-linejoin:round; stroke-miterlimit:1.5; fill:none; stroke:none;"
>
    <!--
    <rect x="0" y="0" width="512" height="512" style="fill:#777;" />
    -->
    <g transform="translate(240, 240)">
        <g transform="rotate(-45) scale(0.8)">
        <!--<g transform="">-->
            <!-- SHADOW -->
            <g transform="translate(0, 40)">
                <ellipse transform="translate(-100, -150)" cx="0" cy="0" rx="72" ry="72" style="fill:#000;stroke:#000;stroke-width:70px;"/>
                <ellipse transform="translate(+100, -150)" cx="0" cy="0" rx="72" ry="72" style="fill:#000;stroke:#000;stroke-width:70px;"/>
                <path d="M-220,0 L+220,-0Z  M0,0 L-160,+200Z  M0,0 L+160,+200Z" style="stroke-width:100px;stroke:#000;"/>
            </g>
            <!-- EYES -->
            <g transform="translate(0, -150)">
                <g transform="translate(-100, 0)">
                    <ellipse cx="0" cy="0" rx="72" ry="72" style="fill:#fff;stroke:#fff;stroke-width:70px;"/>
                    <ellipse cx="0" cy="0" rx="72" ry="72" style="fill:none;stroke:#47009C;stroke-width:30px;"/>
                    <ellipse cx="0" cy="28" rx="32" ry="32" style="fill:#5800C3;"/>
                </g>
                <g transform="translate(+100, 0)">
                    <ellipse cx="0" cy="0" rx="72" ry="72" style="fill:#fff;stroke:#fff;stroke-width:70px;"/>
                    <ellipse cx="0" cy="0" rx="72" ry="72" style="fill:#fff;stroke:#47009C;stroke-width:30px;"/>
                    <ellipse cx="0" cy="28" rx="32" ry="32" style="fill:#5800C3;"/>
                </g>
            </g>
            <!-- BODY -->
            <path d="M-220,0 L+220,-0Z  M0,0 L-160,+200Z  M0,0 L+160,+200Z" style="stroke-width:120px;stroke:#fff;"/>
            <path d="M-220,0 L+220,-0Z  M0,0 L-160,+200Z  M0,0 L+160,+200Z" style="stroke-width:60px;stroke:#47009C;"/>
        </g>
    </g>
</svg>
